<?xml version="1.0" encoding="UTF-8" standalone="no"?>
<!DOCTYPE svg PUBLIC "-//W3C//DTD SVG 1.1//EN" "http://www.w3.org/Graphics/SVG/1.1/DTD/svg11.dtd">
<svg width="100%" height="100%" viewBox="0 0 977 588" version="1.1" xmlns="http://www.w3.org/2000/svg" xmlns:xlink="http://www.w3.org/1999/xlink" xml:space="preserve" xmlns:serif="http://www.serif.com/" style="fill-rule:evenodd;clip-rule:evenodd;stroke-linejoin:round;stroke-miterlimit:2;">
    <g transform="matrix(1,0,0,1,-11.9379,-70.7407)">
        <g transform="matrix(3.75012,0,0,3.75012,18.7574,-194.157)">
            <g id="T" transform="matrix(1.71026,0,0,1.71026,-652.459,-718.422)">
                <path d="M479.978,519.617L485.097,528.144L510.123,485.224L527.889,485.21L532.629,477.87L513.586,477.87L523.488,462.178L514.217,462.178L504.242,477.87L490.568,477.883L486.163,485.216L500.375,485.214L479.978,519.617Z" style="fill:rgb(198,120,221);"/>
            </g>
            <g id="W" transform="matrix(1.71026,0,0,1.71026,-652.459,-718.422)">
                <path d="M439.762,507.734L451.759,527.73L491.02,462.22L480.895,462.22L451.95,512.685L444.514,499.564L439.762,507.734Z" style="fill:rgb(255,88,90);"/>
                <path d="M380.435,461.465L419.712,526.629L458.691,462.06L448.701,462.06L419.938,510.277L393.612,468.351L416.403,468.107L425.666,483.586L430.825,475.414L422.731,461.369L380.435,461.465Z" style="fill:rgb(255,88,90);"/>
            </g>
        </g>
        <g transform="matrix(2.69109,0,0,2.69109,-1084.01,-983.287)">
            <g transform="matrix(50,0,0,50,406.638,609.159)">
                <path d="M0.546,-0.619C0.554,-0.592 0.563,-0.561 0.572,-0.527C0.582,-0.492 0.592,-0.457 0.603,-0.42C0.614,-0.383 0.625,-0.347 0.637,-0.31C0.648,-0.273 0.659,-0.239 0.67,-0.208C0.678,-0.242 0.687,-0.279 0.696,-0.319C0.705,-0.359 0.714,-0.4 0.722,-0.443C0.73,-0.486 0.738,-0.528 0.745,-0.571C0.753,-0.613 0.76,-0.654 0.767,-0.693L0.929,-0.693C0.906,-0.577 0.879,-0.459 0.848,-0.34C0.818,-0.221 0.784,-0.107 0.749,-0L0.606,-0C0.583,-0.064 0.56,-0.131 0.538,-0.202C0.516,-0.272 0.495,-0.342 0.473,-0.413C0.452,-0.342 0.431,-0.272 0.409,-0.202C0.388,-0.131 0.366,-0.064 0.342,-0L0.2,-0C0.164,-0.107 0.131,-0.221 0.101,-0.34C0.07,-0.459 0.043,-0.577 0.02,-0.693L0.189,-0.693C0.196,-0.654 0.203,-0.613 0.211,-0.571C0.219,-0.528 0.228,-0.486 0.236,-0.443C0.245,-0.4 0.254,-0.359 0.263,-0.319C0.272,-0.279 0.281,-0.242 0.291,-0.208C0.303,-0.241 0.314,-0.275 0.326,-0.312C0.337,-0.349 0.348,-0.385 0.359,-0.422C0.369,-0.459 0.379,-0.494 0.388,-0.528C0.397,-0.562 0.405,-0.592 0.413,-0.619L0.546,-0.619Z" style="fill:rgb(255,88,90);fill-rule:nonzero;"/>
            </g>
            <g transform="matrix(50,0,0,50,454.038,609.159)">
                <path d="M0.219,-0L0.07,-0L0.07,-0.526L0.219,-0.526L0.219,-0ZM0.233,-0.678C0.233,-0.651 0.224,-0.629 0.206,-0.614C0.189,-0.598 0.168,-0.59 0.144,-0.59C0.12,-0.59 0.099,-0.598 0.082,-0.614C0.064,-0.629 0.055,-0.651 0.055,-0.678C0.055,-0.705 0.064,-0.727 0.082,-0.743C0.099,-0.758 0.12,-0.766 0.144,-0.766C0.168,-0.766 0.189,-0.758 0.206,-0.743C0.224,-0.727 0.233,-0.705 0.233,-0.678Z" style="fill:rgb(255,88,90);fill-rule:nonzero;"/>
            </g>
            <g transform="matrix(50,0,0,50,468.488,609.159)">
                <path d="M0.28,0.01C0.237,0.009 0.202,0.005 0.174,-0.004C0.148,-0.013 0.126,-0.025 0.111,-0.041C0.095,-0.056 0.084,-0.075 0.079,-0.098C0.073,-0.12 0.07,-0.145 0.07,-0.173L0.07,-0.752L0.219,-0.776L0.219,-0.203C0.219,-0.19 0.22,-0.178 0.222,-0.167C0.224,-0.156 0.228,-0.147 0.234,-0.14C0.239,-0.133 0.247,-0.127 0.258,-0.122C0.269,-0.117 0.283,-0.114 0.301,-0.113L0.28,0.01Z" style="fill:rgb(255,88,90);fill-rule:nonzero;"/>
            </g>
            <g transform="matrix(50,0,0,50,484.288,609.159)">
                <path d="M0.197,-0.267C0.197,-0.221 0.207,-0.184 0.228,-0.156C0.249,-0.128 0.279,-0.114 0.32,-0.114C0.333,-0.114 0.346,-0.115 0.357,-0.116C0.368,-0.117 0.378,-0.118 0.385,-0.119L0.385,-0.39C0.376,-0.396 0.364,-0.401 0.348,-0.405C0.334,-0.409 0.318,-0.411 0.303,-0.411C0.232,-0.411 0.197,-0.363 0.197,-0.267ZM0.534,-0.017C0.521,-0.013 0.505,-0.009 0.488,-0.006C0.471,-0.002 0.453,0.001 0.434,0.004C0.414,0.007 0.395,0.009 0.376,0.01C0.356,0.012 0.337,0.013 0.319,0.013C0.276,0.013 0.237,0.007 0.203,-0.006C0.169,-0.019 0.14,-0.037 0.117,-0.061C0.094,-0.084 0.076,-0.113 0.064,-0.147C0.051,-0.18 0.045,-0.218 0.045,-0.26C0.045,-0.303 0.05,-0.341 0.061,-0.376C0.072,-0.41 0.087,-0.439 0.107,-0.463C0.127,-0.487 0.152,-0.505 0.181,-0.518C0.21,-0.531 0.243,-0.537 0.28,-0.537C0.301,-0.537 0.319,-0.535 0.336,-0.531C0.352,-0.527 0.368,-0.521 0.385,-0.514L0.385,-0.752L0.534,-0.776L0.534,-0.017Z" style="fill:rgb(255,88,90);fill-rule:nonzero;"/>
            </g>
            <g transform="matrix(50,0,0,50,513.988,609.159)">
                <path d="M0.391,-0.302C0.377,-0.251 0.363,-0.201 0.348,-0.151C0.333,-0.101 0.317,-0.051 0.301,-0L0.185,-0C0.172,-0.028 0.159,-0.061 0.145,-0.1C0.131,-0.139 0.117,-0.181 0.102,-0.227C0.087,-0.272 0.071,-0.321 0.056,-0.372C0.04,-0.423 0.025,-0.474 0.01,-0.526L0.167,-0.526C0.172,-0.502 0.178,-0.476 0.185,-0.448C0.191,-0.419 0.198,-0.39 0.205,-0.36C0.212,-0.33 0.219,-0.3 0.227,-0.27C0.235,-0.239 0.242,-0.21 0.251,-0.182C0.259,-0.211 0.268,-0.241 0.276,-0.272C0.284,-0.303 0.292,-0.333 0.3,-0.363C0.308,-0.392 0.315,-0.421 0.322,-0.449C0.329,-0.476 0.335,-0.502 0.341,-0.526L0.449,-0.526C0.454,-0.502 0.46,-0.476 0.467,-0.449C0.473,-0.421 0.48,-0.392 0.488,-0.363C0.495,-0.333 0.502,-0.303 0.51,-0.272C0.519,-0.241 0.527,-0.211 0.536,-0.182C0.544,-0.21 0.552,-0.239 0.56,-0.27C0.568,-0.3 0.575,-0.33 0.582,-0.36C0.589,-0.39 0.596,-0.419 0.602,-0.448C0.609,-0.476 0.615,-0.502 0.62,-0.526L0.775,-0.526C0.76,-0.474 0.745,-0.423 0.729,-0.372C0.714,-0.321 0.698,-0.272 0.683,-0.227C0.668,-0.181 0.653,-0.139 0.639,-0.1C0.625,-0.061 0.612,-0.028 0.6,-0L0.484,-0C0.467,-0.051 0.451,-0.101 0.435,-0.151C0.419,-0.201 0.404,-0.251 0.391,-0.302Z" style="fill:rgb(255,88,90);fill-rule:nonzero;"/>
            </g>
            <g transform="matrix(50,0,0,50,552.588,609.159)">
                <path d="M0.562,-0.264C0.562,-0.223 0.556,-0.185 0.544,-0.151C0.532,-0.116 0.515,-0.087 0.492,-0.063C0.469,-0.038 0.442,-0.019 0.41,-0.006C0.379,0.007 0.343,0.014 0.304,0.014C0.265,0.014 0.23,0.007 0.199,-0.006C0.167,-0.019 0.14,-0.038 0.117,-0.063C0.094,-0.087 0.077,-0.116 0.064,-0.151C0.051,-0.185 0.045,-0.223 0.045,-0.264C0.045,-0.305 0.051,-0.343 0.065,-0.377C0.078,-0.411 0.096,-0.44 0.118,-0.464C0.141,-0.488 0.169,-0.507 0.201,-0.52C0.232,-0.533 0.267,-0.54 0.304,-0.54C0.342,-0.54 0.377,-0.533 0.408,-0.52C0.44,-0.507 0.467,-0.488 0.49,-0.464C0.513,-0.44 0.53,-0.411 0.543,-0.377C0.556,-0.343 0.562,-0.305 0.562,-0.264ZM0.41,-0.264C0.41,-0.31 0.401,-0.346 0.383,-0.373C0.364,-0.399 0.338,-0.412 0.304,-0.412C0.27,-0.412 0.244,-0.399 0.225,-0.373C0.206,-0.346 0.197,-0.31 0.197,-0.264C0.197,-0.218 0.206,-0.182 0.225,-0.155C0.244,-0.128 0.27,-0.114 0.304,-0.114C0.338,-0.114 0.364,-0.128 0.383,-0.155C0.401,-0.182 0.41,-0.218 0.41,-0.264Z" style="fill:rgb(255,88,90);fill-rule:nonzero;"/>
            </g>
            <g transform="matrix(50,0,0,50,582.938,609.159)">
                <path d="M0.562,-0.264C0.562,-0.223 0.556,-0.185 0.544,-0.151C0.532,-0.116 0.515,-0.087 0.492,-0.063C0.469,-0.038 0.442,-0.019 0.41,-0.006C0.379,0.007 0.343,0.014 0.304,0.014C0.265,0.014 0.23,0.007 0.199,-0.006C0.167,-0.019 0.14,-0.038 0.117,-0.063C0.094,-0.087 0.077,-0.116 0.064,-0.151C0.051,-0.185 0.045,-0.223 0.045,-0.264C0.045,-0.305 0.051,-0.343 0.065,-0.377C0.078,-0.411 0.096,-0.44 0.118,-0.464C0.141,-0.488 0.169,-0.507 0.201,-0.52C0.232,-0.533 0.267,-0.54 0.304,-0.54C0.342,-0.54 0.377,-0.533 0.408,-0.52C0.44,-0.507 0.467,-0.488 0.49,-0.464C0.513,-0.44 0.53,-0.411 0.543,-0.377C0.556,-0.343 0.562,-0.305 0.562,-0.264ZM0.41,-0.264C0.41,-0.31 0.401,-0.346 0.383,-0.373C0.364,-0.399 0.338,-0.412 0.304,-0.412C0.27,-0.412 0.244,-0.399 0.225,-0.373C0.206,-0.346 0.197,-0.31 0.197,-0.264C0.197,-0.218 0.206,-0.182 0.225,-0.155C0.244,-0.128 0.27,-0.114 0.304,-0.114C0.338,-0.114 0.364,-0.128 0.383,-0.155C0.401,-0.182 0.41,-0.218 0.41,-0.264Z" style="fill:rgb(255,88,90);fill-rule:nonzero;"/>
            </g>
            <g transform="matrix(50,0,0,50,613.288,609.159)">
                <path d="M0.197,-0.267C0.197,-0.221 0.207,-0.184 0.228,-0.156C0.249,-0.128 0.279,-0.114 0.32,-0.114C0.333,-0.114 0.346,-0.115 0.357,-0.116C0.368,-0.117 0.378,-0.118 0.385,-0.119L0.385,-0.39C0.376,-0.396 0.364,-0.401 0.348,-0.405C0.334,-0.409 0.318,-0.411 0.303,-0.411C0.232,-0.411 0.197,-0.363 0.197,-0.267ZM0.534,-0.017C0.521,-0.013 0.505,-0.009 0.488,-0.006C0.471,-0.002 0.453,0.001 0.434,0.004C0.414,0.007 0.395,0.009 0.376,0.01C0.356,0.012 0.337,0.013 0.319,0.013C0.276,0.013 0.237,0.007 0.203,-0.006C0.169,-0.019 0.14,-0.037 0.117,-0.061C0.094,-0.084 0.076,-0.113 0.064,-0.147C0.051,-0.18 0.045,-0.218 0.045,-0.26C0.045,-0.303 0.05,-0.341 0.061,-0.376C0.072,-0.41 0.087,-0.439 0.107,-0.463C0.127,-0.487 0.152,-0.505 0.181,-0.518C0.21,-0.531 0.243,-0.537 0.28,-0.537C0.301,-0.537 0.319,-0.535 0.336,-0.531C0.352,-0.527 0.368,-0.521 0.385,-0.514L0.385,-0.752L0.534,-0.776L0.534,-0.017Z" style="fill:rgb(255,88,90);fill-rule:nonzero;"/>
            </g>
            <g transform="matrix(50,0,0,50,643.488,609.159)">
                <path d="M0.594,-0.693L0.594,-0.56L0.385,-0.56L0.385,-0L0.229,-0L0.229,-0.56L0.02,-0.56L0.02,-0.693L0.594,-0.693Z" style="fill:rgb(198,120,221);fill-rule:nonzero;"/>
            </g>
            <g transform="matrix(50,0,0,50,674.188,609.159)">
                <path d="M0.08,-0L0.08,-0.693L0.548,-0.693L0.548,-0.562L0.236,-0.562L0.236,-0.426L0.513,-0.426L0.513,-0.298L0.236,-0.298L0.236,-0.131L0.571,-0.131L0.571,-0L0.08,-0Z" style="fill:rgb(198,120,221);fill-rule:nonzero;"/>
            </g>
            <g transform="matrix(50,0,0,50,704.488,609.159)">
                <path d="M0.396,0.014C0.283,0.014 0.198,-0.017 0.139,-0.08C0.08,-0.143 0.05,-0.232 0.05,-0.347C0.05,-0.404 0.059,-0.456 0.077,-0.5C0.095,-0.546 0.12,-0.584 0.151,-0.615C0.182,-0.646 0.22,-0.669 0.263,-0.685C0.306,-0.701 0.353,-0.709 0.404,-0.709C0.433,-0.709 0.46,-0.707 0.484,-0.703C0.508,-0.698 0.529,-0.693 0.547,-0.688C0.565,-0.682 0.58,-0.676 0.592,-0.67C0.604,-0.664 0.613,-0.659 0.618,-0.656L0.573,-0.53C0.552,-0.541 0.527,-0.551 0.499,-0.559C0.47,-0.567 0.438,-0.571 0.402,-0.571C0.378,-0.571 0.355,-0.567 0.332,-0.559C0.309,-0.551 0.288,-0.538 0.271,-0.521C0.253,-0.503 0.239,-0.48 0.228,-0.452C0.217,-0.424 0.212,-0.39 0.212,-0.35C0.212,-0.318 0.216,-0.288 0.223,-0.261C0.23,-0.233 0.241,-0.209 0.257,-0.189C0.272,-0.169 0.293,-0.153 0.318,-0.141C0.343,-0.13 0.374,-0.124 0.41,-0.124C0.433,-0.124 0.453,-0.125 0.471,-0.128C0.489,-0.131 0.505,-0.134 0.519,-0.138C0.533,-0.141 0.545,-0.145 0.556,-0.15C0.567,-0.155 0.576,-0.159 0.585,-0.163L0.628,-0.038C0.606,-0.025 0.575,-0.013 0.535,-0.002C0.495,0.009 0.449,0.014 0.396,0.014Z" style="fill:rgb(198,120,221);fill-rule:nonzero;"/>
            </g>
            <g transform="matrix(50,0,0,50,736.888,609.159)">
                <path d="M0.498,-0.693L0.654,-0.693L0.654,-0L0.498,-0L0.498,-0.294L0.236,-0.294L0.236,-0L0.08,-0L0.08,-0.693L0.236,-0.693L0.236,-0.428L0.498,-0.428L0.498,-0.693Z" style="fill:rgb(198,120,221);fill-rule:nonzero;"/>
            </g>
        </g>
    </g>
</svg>
