<?xml version="1.0" encoding="UTF-8" standalone="no"?>
<!DOCTYPE svg PUBLIC "-//W3C//DTD SVG 1.1//EN" "http://www.w3.org/Graphics/SVG/1.1/DTD/svg11.dtd">
<svg width="100%" height="100%" viewBox="0 0 977 587" version="1.1" xmlns="http://www.w3.org/2000/svg" xmlns:xlink="http://www.w3.org/1999/xlink" xml:space="preserve" xmlns:serif="http://www.serif.com/" style="fill-rule:evenodd;clip-rule:evenodd;stroke-linejoin:round;stroke-miterlimit:2;">
    <g transform="matrix(1,0,0,1,-11.9379,-70.7407)">
        <g transform="matrix(3.75012,0,0,3.75012,18.7574,-194.157)">
            <g id="T" transform="matrix(1.71026,0,0,1.71026,-652.459,-718.422)">
                <path d="M479.978,519.617L485.097,528.144L510.123,485.224L527.889,485.21L532.629,477.87L513.586,477.87L523.488,462.178L514.217,462.178L504.242,477.87L490.568,477.883L486.163,485.216L500.375,485.214L479.978,519.617Z" style="fill:rgb(255,88,90);"/>
            </g>
            <g id="W" transform="matrix(1.71026,0,0,1.71026,-652.459,-718.422)">
                <path d="M439.762,507.734L451.759,527.73L491.02,462.22L480.895,462.22L451.95,512.685L444.514,499.564L439.762,507.734Z" style="fill:rgb(255,88,90);"/>
                <path d="M380.435,461.465L419.712,526.629L458.691,462.06L448.701,462.06L419.938,510.277L393.612,468.351L416.403,468.107L425.666,483.586L430.825,475.414L422.731,461.369L380.435,461.465Z" style="fill:rgb(255,88,90);"/>
            </g>
        </g>
        <g transform="matrix(2.69109,0,0,2.69109,-1077.58,-983.287)">
            <g transform="matrix(50,0,0,50,406.638,609.159)">
                <path d="M0.076,-0L0.001,-0.693L0.128,-0.693L0.171,-0.115L0.185,-0.115L0.236,-0.518L0.351,-0.518L0.401,-0.115L0.415,-0.115L0.458,-0.693L0.584,-0.693L0.51,-0L0.335,-0L0.296,-0.384L0.29,-0.384L0.251,-0L0.076,-0Z" style="fill:rgb(255,88,90);fill-rule:nonzero;"/>
            </g>
            <g transform="matrix(50,0,0,50,435.935,609.159)">
                <path d="M0.07,-0L0.07,-0.122L0.261,-0.122L0.261,-0.396L0.099,-0.396L0.099,-0.518L0.393,-0.518L0.393,-0.122L0.546,-0.122L0.546,-0L0.07,-0ZM0.321,-0.587C0.296,-0.587 0.276,-0.595 0.26,-0.611C0.245,-0.626 0.237,-0.647 0.237,-0.672C0.237,-0.697 0.245,-0.717 0.26,-0.733C0.276,-0.749 0.296,-0.756 0.321,-0.756C0.346,-0.756 0.367,-0.749 0.382,-0.733C0.398,-0.717 0.406,-0.697 0.406,-0.672C0.406,-0.647 0.398,-0.626 0.382,-0.611C0.367,-0.595 0.346,-0.587 0.321,-0.587Z" style="fill:rgb(255,88,90);fill-rule:nonzero;"/>
            </g>
            <g transform="matrix(50,0,0,50,465.232,609.159)">
                <path d="M0.37,0.01C0.305,0.01 0.258,-0.008 0.229,-0.044C0.2,-0.08 0.186,-0.137 0.186,-0.216L0.186,-0.611L0.04,-0.611L0.04,-0.732L0.318,-0.732L0.318,-0.221C0.318,-0.188 0.323,-0.165 0.335,-0.15C0.346,-0.135 0.371,-0.128 0.409,-0.128C0.438,-0.128 0.474,-0.134 0.518,-0.146L0.533,-0.011C0.505,-0.004 0.478,0.002 0.453,0.005C0.427,0.008 0.399,0.01 0.37,0.01Z" style="fill:rgb(255,88,90);fill-rule:nonzero;"/>
            </g>
            <g transform="matrix(50,0,0,50,494.529,609.159)">
                <path d="M0.242,0.01C0.178,0.01 0.128,-0.013 0.092,-0.06C0.056,-0.106 0.039,-0.172 0.039,-0.258C0.039,-0.344 0.056,-0.41 0.092,-0.457C0.128,-0.504 0.178,-0.527 0.243,-0.527C0.28,-0.527 0.309,-0.519 0.329,-0.502C0.349,-0.485 0.361,-0.459 0.367,-0.424L0.38,-0.424L0.38,-0.732L0.512,-0.732L0.512,-0L0.399,0.005L0.38,-0.094L0.369,-0.094C0.364,-0.059 0.35,-0.033 0.329,-0.016C0.307,0.001 0.278,0.01 0.242,0.01ZM0.38,-0.258C0.38,-0.308 0.372,-0.345 0.355,-0.368C0.338,-0.391 0.313,-0.403 0.279,-0.403C0.247,-0.403 0.222,-0.39 0.204,-0.365C0.187,-0.34 0.178,-0.304 0.178,-0.258C0.178,-0.163 0.211,-0.115 0.279,-0.115C0.317,-0.115 0.343,-0.126 0.358,-0.149C0.372,-0.172 0.38,-0.208 0.38,-0.258Z" style="fill:rgb(255,88,90);fill-rule:nonzero;"/>
            </g>
            <g transform="matrix(50,0,0,50,523.826,609.159)">
                <path d="M0.343,-0L0.291,-0.39L0.285,-0.39L0.233,-0L0.06,-0L0.026,-0.518L0.154,-0.518L0.173,-0.123L0.182,-0.123L0.241,-0.518L0.335,-0.518L0.395,-0.123L0.403,-0.123L0.435,-0.518L0.56,-0.518L0.511,-0L0.343,-0Z" style="fill:rgb(255,88,90);fill-rule:nonzero;"/>
            </g>
            <g transform="matrix(50,0,0,50,553.123,609.159)">
                <path d="M0.293,0.01C0.218,0.01 0.161,-0.014 0.12,-0.061C0.079,-0.107 0.058,-0.174 0.058,-0.259C0.058,-0.344 0.079,-0.411 0.12,-0.457C0.161,-0.504 0.218,-0.527 0.293,-0.527C0.368,-0.527 0.425,-0.504 0.466,-0.457C0.507,-0.411 0.528,-0.344 0.528,-0.259C0.528,-0.174 0.507,-0.107 0.466,-0.061C0.425,-0.014 0.368,0.01 0.293,0.01ZM0.293,-0.116C0.323,-0.116 0.347,-0.128 0.363,-0.153C0.379,-0.178 0.388,-0.213 0.388,-0.259C0.388,-0.305 0.379,-0.34 0.363,-0.365C0.347,-0.389 0.323,-0.402 0.293,-0.402C0.263,-0.402 0.24,-0.389 0.223,-0.365C0.207,-0.34 0.198,-0.305 0.198,-0.259C0.198,-0.213 0.207,-0.178 0.223,-0.153C0.24,-0.128 0.263,-0.116 0.293,-0.116Z" style="fill:rgb(255,88,90);fill-rule:nonzero;"/>
            </g>
            <g transform="matrix(50,0,0,50,582.419,609.159)">
                <path d="M0.293,0.01C0.218,0.01 0.161,-0.014 0.12,-0.061C0.079,-0.107 0.058,-0.174 0.058,-0.259C0.058,-0.344 0.079,-0.411 0.12,-0.457C0.161,-0.504 0.218,-0.527 0.293,-0.527C0.368,-0.527 0.425,-0.504 0.466,-0.457C0.507,-0.411 0.528,-0.344 0.528,-0.259C0.528,-0.174 0.507,-0.107 0.466,-0.061C0.425,-0.014 0.368,0.01 0.293,0.01ZM0.293,-0.116C0.323,-0.116 0.347,-0.128 0.363,-0.153C0.379,-0.178 0.388,-0.213 0.388,-0.259C0.388,-0.305 0.379,-0.34 0.363,-0.365C0.347,-0.389 0.323,-0.402 0.293,-0.402C0.263,-0.402 0.24,-0.389 0.223,-0.365C0.207,-0.34 0.198,-0.305 0.198,-0.259C0.198,-0.213 0.207,-0.178 0.223,-0.153C0.24,-0.128 0.263,-0.116 0.293,-0.116Z" style="fill:rgb(255,88,90);fill-rule:nonzero;"/>
            </g>
            <g transform="matrix(50,0,0,50,611.716,609.159)">
                <path d="M0.242,0.01C0.178,0.01 0.128,-0.013 0.092,-0.06C0.056,-0.106 0.039,-0.172 0.039,-0.258C0.039,-0.344 0.056,-0.41 0.092,-0.457C0.128,-0.504 0.178,-0.527 0.243,-0.527C0.28,-0.527 0.309,-0.519 0.329,-0.502C0.349,-0.485 0.361,-0.459 0.367,-0.424L0.38,-0.424L0.38,-0.732L0.512,-0.732L0.512,-0L0.399,0.005L0.38,-0.094L0.369,-0.094C0.364,-0.059 0.35,-0.033 0.329,-0.016C0.307,0.001 0.278,0.01 0.242,0.01ZM0.38,-0.258C0.38,-0.308 0.372,-0.345 0.355,-0.368C0.338,-0.391 0.313,-0.403 0.279,-0.403C0.247,-0.403 0.222,-0.39 0.204,-0.365C0.187,-0.34 0.178,-0.304 0.178,-0.258C0.178,-0.163 0.211,-0.115 0.279,-0.115C0.317,-0.115 0.343,-0.126 0.358,-0.149C0.372,-0.172 0.38,-0.208 0.38,-0.258Z" style="fill:rgb(255,88,90);fill-rule:nonzero;"/>
            </g>
            <g transform="matrix(50,0,0,50,641.013,609.159)">
                <path d="M0.229,-0L0.229,-0.575L0.031,-0.575L0.031,-0.693L0.555,-0.693L0.555,-0.575L0.357,-0.575L0.357,-0L0.229,-0Z" style="fill:rgb(198,120,221);fill-rule:nonzero;"/>
            </g>
            <g transform="matrix(50,0,0,50,670.31,609.159)">
                <path d="M0.07,-0L0.07,-0.693L0.545,-0.693L0.545,-0.575L0.199,-0.575L0.199,-0.407L0.458,-0.407L0.458,-0.288L0.199,-0.288L0.199,-0.119L0.545,-0.119L0.545,-0L0.07,-0Z" style="fill:rgb(198,120,221);fill-rule:nonzero;"/>
            </g>
            <g transform="matrix(50,0,0,50,699.607,609.159)">
                <path d="M0.365,0.01C0.144,0.01 0.034,-0.109 0.034,-0.348C0.034,-0.461 0.062,-0.548 0.117,-0.61C0.173,-0.672 0.252,-0.703 0.354,-0.703C0.399,-0.703 0.44,-0.696 0.476,-0.681C0.511,-0.666 0.538,-0.645 0.556,-0.618L0.484,-0.523C0.453,-0.562 0.41,-0.581 0.354,-0.581C0.299,-0.581 0.254,-0.561 0.22,-0.521C0.186,-0.482 0.169,-0.425 0.169,-0.353C0.169,-0.193 0.24,-0.113 0.382,-0.113C0.429,-0.113 0.476,-0.123 0.521,-0.143L0.544,-0.023C0.487,-0.001 0.428,0.01 0.365,0.01Z" style="fill:rgb(198,120,221);fill-rule:nonzero;"/>
            </g>
            <g transform="matrix(50,0,0,50,728.904,609.159)">
                <path d="M0.397,-0L0.397,-0.286L0.189,-0.286L0.189,-0L0.06,-0L0.06,-0.693L0.189,-0.693L0.189,-0.405L0.397,-0.405L0.397,-0.693L0.526,-0.693L0.526,-0L0.397,-0Z" style="fill:rgb(198,120,221);fill-rule:nonzero;"/>
            </g>
        </g>
    </g>
</svg>
